<?xml version="1.0" standalone="no"?>
<!DOCTYPE svg PUBLIC "-//W3C//DTD SVG 20010904//EN"
 "http://www.w3.org/TR/2001/REC-SVG-20010904/DTD/svg10.dtd">
<svg version="1.0" xmlns="http://www.w3.org/2000/svg"
 width="1024.000000pt" height="1024.000000pt" viewBox="0 0 1024.000000 1024.000000"
 preserveAspectRatio="xMidYMid meet">

<g transform="translate(0.000000,1024.000000) scale(0.100000,-0.100000)"
fill="#000000" stroke="none">
<path d="M0 5120 l0 -5120 5120 0 5120 0 0 5120 0 5120 -5120 0 -5120 0 0
-5120z m4968 2488 c9 -9 12 -77 12 -245 l0 -233 199 0 198 0 8 233 c4 135 11
237 17 245 8 9 57 12 202 10 l191 -3 3 -266 2 -267 56 -7 c118 -14 260 -56
363 -106 87 -42 117 -64 187 -133 99 -97 147 -186 165 -306 13 -86 6 -200 -18
-269 -40 -119 -154 -242 -293 -315 -38 -21 -59 -36 -50 -39 8 -2 59 -14 113
-25 138 -30 237 -79 313 -157 95 -97 109 -140 109 -345 0 -160 -1 -167 -28
-225 -79 -168 -284 -339 -582 -485 -162 -79 -272 -119 -440 -161 -191 -47
-226 -51 -485 -58 l-245 -6 -5 -87 -5 -87 -155 97 c-200 126 -573 357 -651
403 -33 20 -68 43 -77 52 -15 16 -13 17 24 17 52 0 102 17 133 44 52 46 51 24
51 909 l0 823 -22 44 c-38 74 -70 84 -283 90 l-180 5 0 185 0 185 398 3 397 2
0 238 c0 131 3 242 7 245 12 13 358 8 371 -5z m3590 -204 c20 -8 50 -27 65
-42 61 -58 57 132 57 -2435 l0 -2354 -23 -44 c-14 -26 -42 -56 -68 -74 -43
-29 -47 -30 -188 -34 -91 -2 -158 1 -183 8 -48 15 -107 65 -124 108 -12 27
-14 260 -14 1310 0 757 -4 1294 -10 1318 -5 23 -10 476 -11 1078 l-2 1038 29
46 c19 30 45 55 73 70 41 21 56 23 203 23 121 0 168 -4 196 -16z m-752 -2233
c47 -22 80 -59 94 -110 8 -24 10 -473 8 -1406 l-3 -1370 -22 -42 c-13 -23 -37
-53 -55 -66 -63 -46 -92 -51 -256 -49 -185 2 -221 15 -260 93 l-23 47 -6 1373
c-4 1027 -3 1385 6 1416 14 51 54 101 96 119 21 9 82 13 205 13 149 1 181 -2
216 -18z m-3977 -306 c42 -25 70 -62 80 -106 4 -19 5 -668 2 -1444 -3 -845 -8
-1384 -13 -1345 -5 36 -7 95 -4 132 3 37 1 70 -5 73 -5 4 -9 0 -10 -7 0 -7 -5
-4 -11 8 -8 17 -18 21 -51 19 -23 -1 -53 3 -67 10 -27 13 -87 34 -118 40 -11
2 -39 12 -63 23 -113 51 -119 53 -160 40 -29 -8 -39 -17 -40 -32 0 -21 -1 -21
-8 -1 -8 19 -9 18 -13 -5 -4 -21 -6 -19 -8 10 l-2 35 -9 -40 c-5 -22 -13 -112
-18 -200 -5 -99 -8 384 -9 1263 -2 1551 -6 1447 55 1504 43 40 83 47 268 45
150 -2 174 -4 204 -22z m3180 -74 c65 -46 61 30 61 -1313 0 -1165 -1 -1225
-19 -1263 -23 -51 -70 -91 -124 -106 -61 -16 -273 -7 -312 13 -40 22 -70 56
-84 97 -8 25 -11 369 -11 1255 l0 1222 23 44 c37 74 63 81 262 78 161 -3 172
-4 204 -27z m-3978 -292 c31 -17 51 -38 67 -69 l23 -45 -3 -805 c-3 -910 -6
-1050 -18 -1031 -6 10 -9 9 -14 -7 -4 -12 -16 -24 -27 -27 -10 -4 -19 -10 -19
-15 0 -5 -9 -12 -20 -15 -11 -3 -20 -11 -20 -16 0 -17 27 -9 54 16 14 13 26
21 26 16 0 -19 -75 -71 -102 -71 -11 0 -11 2 0 9 10 6 9 10 -7 14 -12 3 -21
10 -21 17 0 6 4 9 8 6 4 -2 14 -1 22 5 11 6 0 9 -35 10 -27 0 -57 2 -65 4 -8
2 -49 9 -90 15 -41 7 -79 15 -85 20 -5 4 -40 14 -76 23 -36 9 -74 20 -84 23
-11 5 -16 3 -12 -2 3 -6 2 -16 -4 -24 -6 -11 -9 -7 -10 15 -1 27 -2 26 -9 -10
-6 -27 -5 -43 3 -50 7 -6 18 -22 26 -35 l14 -25 -23 20 c-13 11 -31 38 -41 60
-18 38 -19 88 -19 950 l0 911 23 44 c44 87 90 100 328 96 153 -3 170 -5 210
-27z m-898 -23 c44 -18 94 -77 108 -128 9 -32 10 -251 5 -863 -6 -764 -10
-878 -32 -821 -3 9 -21 24 -38 33 -17 9 -34 20 -38 26 -3 6 -16 12 -28 14 -12
2 -31 9 -43 15 -34 19 -90 38 -114 38 -12 0 -25 5 -28 11 -7 10 -46 28 -76 34
-59 12 -144 70 -179 123 -10 15 -16 18 -22 9 -4 -7 -8 10 -9 38 0 28 -5 61 -9
75 -10 32 -10 27 -19 -320 -5 -178 -8 38 -9 655 -1 975 -2 966 45 1017 46 51
76 57 271 58 132 0 192 -4 215 -14z m4017 -75 c19 -10 45 -36 57 -57 l23 -39
0 -1292 c0 -1280 0 -1293 -20 -1293 -13 0 -18 -5 -14 -15 4 -8 3 -15 0 -15 -4
0 -11 12 -16 26 -8 21 -13 24 -24 15 -10 -8 -21 -9 -33 -3 -45 23 -143 40
-183 31 -32 -7 -53 -5 -103 12 -34 11 -65 26 -69 32 -6 9 -8 9 -8 0 0 -38 -79
9 -81 49 -1 20 -2 19 -9 -7 -6 -25 -8 -19 -10 30 -1 44 -4 55 -10 40 -5 -11
-9 -36 -11 -55 -1 -34 -2 -34 -10 10 -4 25 -8 583 -8 1240 l-1 1195 23 40 c38
68 64 75 282 75 166 0 195 -2 225 -19z m-1570 -246 c19 -12 43 -36 53 -55 17
-33 17 -95 16 -1048 -1 -557 -5 -1014 -9 -1017 -4 -3 -10 -18 -13 -35 -4 -16
-11 -30 -17 -30 -5 0 -9 6 -8 13 2 7 -8 12 -24 12 -14 0 -30 3 -34 8 -4 4 -17
7 -29 7 -12 0 -34 9 -47 20 -15 12 -48 21 -83 25 -31 3 -65 10 -75 15 -10 6
-25 7 -33 4 -28 -10 -86 23 -93 53 -4 15 -10 33 -13 38 -6 11 -7 18 -10 83 0
23 -5 42 -11 42 -5 0 -10 -8 -10 -17 0 -11 -3 -13 -9 -7 -6 5 -11 370 -12 899
-3 802 -2 893 13 920 42 79 92 96 273 93 120 -3 145 -6 175 -23z m786 -431
c15 -11 37 -33 48 -48 21 -28 21 -31 19 -1092 -2 -755 -6 -1070 -14 -1082 -10
-16 -10 -15 -5 1 9 27 -4 73 -15 55 -7 -11 -9 -10 -9 1 0 8 -9 25 -20 37 -12
12 -23 34 -24 50 -2 16 -4 33 -5 37 0 5 -5 5 -11 2 -12 -8 -142 53 -153 71 -4
8 -13 14 -19 14 -7 0 -7 -4 1 -14 9 -11 7 -15 -7 -18 -24 -7 -52 9 -52 28 0 8
-5 12 -11 8 -7 -4 -9 1 -7 12 2 11 11 18 22 17 11 0 15 4 12 12 -2 7 2 16 10
19 8 3 17 -1 21 -10 5 -15 7 -15 15 0 11 20 1 38 -20 35 -10 -1 -24 1 -32 4
-8 3 -28 8 -45 10 -16 3 -49 12 -73 21 -24 9 -54 17 -68 18 -13 1 -24 7 -24
13 0 5 -5 2 -11 -9 -7 -11 -9 -48 -5 -100 3 -44 2 -97 -2 -116 -14 -58 -26
540 -27 1265 0 658 0 671 21 705 11 19 38 45 60 58 37 21 48 22 221 20 165 -3
184 -5 209 -24z m-3333 -1431 c-24 -2 -62 -2 -85 0 -24 2 -5 4 42 4 47 0 66
-2 43 -4z m1844 -230 c-2 -16 -4 -5 -4 22 0 28 2 40 4 28 2 -13 2 -35 0 -50z
m303 -158 c19 -19 32 -35 29 -35 -3 0 -20 16 -39 35 -19 19 -32 35 -29 35 3 0
20 -16 39 -35z m263 -52 c-35 -2 -91 -2 -125 0 -35 2 -7 3 62 3 69 0 97 -1 63
-3z m667 -3 c0 -5 -2 -10 -4 -10 -3 0 -8 5 -11 10 -3 6 -1 10 4 10 6 0 11 -4
11 -10z m-203 -112 c-3 -8 -6 -5 -6 6 -1 11 2 17 5 13 3 -3 4 -12 1 -19z
m1310 -50 c-3 -8 -6 -5 -6 6 -1 11 2 17 5 13 3 -3 4 -12 1 -19z m-22 -52 c-10
-14 -22 -26 -27 -26 -6 0 -5 6 2 15 9 10 9 15 1 15 -6 0 -11 5 -11 11 0 6 9 8
22 4 18 -6 20 -4 14 11 -5 14 -4 16 4 8 9 -9 8 -18 -5 -38z m-493 -36 c12 -11
37 -23 55 -26 19 -4 32 -9 29 -11 -10 -10 -63 9 -91 32 -17 13 -26 24 -22 25
4 0 17 -9 29 -20z m423 -19 c-6 -5 -23 -12 -40 -15 -28 -6 -28 -5 5 8 43 18
46 18 35 7z m-800 -181 c-3 -5 -12 -10 -18 -10 -7 0 -6 4 3 10 19 12 23 12 15
0z"/>
<path d="M4970 6648 c0 -46 -3 -212 -7 -370 l-6 -288 211 0 c250 0 371 18 488
74 143 68 208 160 209 296 0 129 -64 222 -196 286 -133 65 -253 84 -521 84
l-178 0 0 -82z"/>
<path d="M4960 5259 l0 -441 273 4 c254 5 279 7 371 31 202 54 358 159 421
283 27 53 30 68 30 154 0 87 -3 100 -30 149 -38 68 -90 113 -190 161 -153 75
-317 100 -652 100 l-223 0 0 -441z"/>
<path d="M4602 2150 c0 -14 2 -19 5 -12 2 6 2 18 0 25 -3 6 -5 1 -5 -13z"/>
<path d="M5176 1824 c-9 -22 3 -32 14 -14 12 19 12 30 1 30 -5 0 -12 -7 -15
-16z"/>
<path d="M5120 1760 c0 -5 5 -10 11 -10 5 0 7 5 4 10 -3 6 -8 10 -11 10 -2 0
-4 -4 -4 -10z"/>
</g>
</svg>
